<svg width="670" height="311" viewBox="0 0 670 311" xmlns="http://www.w3.org/2000/svg">
  <g fill="none" fill-rule="evenodd">
    <path d="M666.03 311.2c11.78-70.61-9.37-138.92-37.4-162.24C490.47 34.08 152.8 14.26 49.5 157.01 9.7 212.02-6.52 261.17 3.06 311.21h662.97z" fill="#C6E1F3"/>
    <path d="M419.66 131.63c-3.95-2.51-18.09-3.38-17.17-6.03.77-2.22 10.84-1.3 14.1-.43-3.38-.93-18.57-3.33-16.41-6.61 1.58-2.41 18.56 1.84 20.8 2.47-1.06-.35-17.5-3.86-15.73-6.18 2.05-2.68 16.55 1.63 18.79 2.25-1.35-.45-15.56-3.04-13.21-5.84 1.45-1.73 15.19.88 17.43 1.5 9.9 2.75 31.53 18.15 33.87 20.54l-3.6 15.58s-15.36-2.29-38.87-17.25" fill="#F8B791"/>
    <path d="M461.45 285.44c-1.7 13.02-.28 48.53-4.18 70.95a147.16 147.16 0 0 1-28.97 2.86 145.02 145.02 0 0 1-87.78-29.3c-.57-20.2.16-42.78-.23-56.23-1-35.14 5.48-95.37 63.98-76.73 3-.63 2.9.86 32.4 2.86 28.53 1.94 29.9 46.68 24.78 85.59" fill="#2CC0D6"/>
    <path d="M461.97 129.89c45.02 16.6 88.4 60.21 61.25 111.28-34.2 64.33-107.92 74.96-133.76 38.88l-12.52-57.44c18.06-56.12 85.02-14.83 88.8-20.27 4.77-6.87-4.84-25.34-18.32-50.96-2.62-4.98 9.94-23.2 14.55-21.49" fill="#2CC0D6"/>
    <path d="M457.35 258.6c-8.2-12.42-52.78-12.43-56.58-6.97-6.25 8.97-14.96 70.49-6.84 79.95 7.73 9 47.38 12.22 47.38 12.22s37.3-3.28 54.8-11.78c9.62-4.67 2.53-87.29-8.18-96.9-5.21-4.67-28.37 10.32-30.58 23.48" fill="#FFF"/>
    <path d="M458.33 262.45c-8.2-12.43-55.77-14.61-61.56-8.08-3.4 3.84-13.66 72.29-5.54 81.75 7.73 9 66.44 7.82 66.44 7.82s28.1-8.18 45.6-16.68c9.62-4.67 4.64-78.76-6.07-88.36-5.22-4.67-35.68 9.8-38.87 23.55" fill="#FFF"/>
    <path d="M458.61 264.86c-13.7-14.07-61.42-11.7-64.38-6.39-4.81 8.64-10.34 66.16-2.22 75.62 7.73 9 65.66 7.51 65.66 7.51 14.74-6.4 28.7-7.56 47.49-16.45 9.7-4.6 9.4-72.03-.33-82.18-5.74-6-43.84 11.86-46.22 21.89" fill="#FFF"/>
    <path d="M448.81 264.53s-.23-8.27 8.73-9.18c9.7-.99 12.97 7.62 12.97 7.62-7.64 3.01-14.96 4.07-21.7 1.56" fill="#A9D3E0"/>
    <path d="M459 269.59c-3.79-.65-6.72-3.16-8.76-7.66-1.12-4.7-48.2-3.1-58.36.97-6.82 2.74-6.98 72.79-2.47 78.8 3.48 4.64 58.6 1.65 62.76 4.61 0 0 9.3 1.65 13.34-1.83 3.97-3.42 39.98-14.74 44.57-16.95 7.2-3.45 6.6-73.34 1-84.1-2.31-4.46-44.14 10.07-44 16.54.12 4.84-8.08 9.62-8.08 9.62" fill="#016099"/>
    <path d="M450.12 347l.12-85.07c5.67 2.55 13.79 3.4 16.85-1.96l1.01 84.17c0 4.23-17.98 5.7-17.98 2.86" fill="#002869"/>
    <path d="M475.9 272.35c9.6-5.35 19.62-9.62 30.37-12 1.52-.34.88-2.68-.65-2.34-10.95 2.43-21.17 6.8-30.94 12.24-1.37.77-.15 2.86 1.22 2.1m5.5 8.55c6.5-3.08 13.2-6.78 20.22-8.43 1.52-.36.88-2.7-.64-2.34-7.22 1.7-14.15 5.52-20.8 8.68-1.4.67-.17 2.76 1.23 2.1" fill="#A9D3E0"/>
    <path d="M429.92 310.45c5.26-1.65 11.62-.94 14.53-2.05 6.5-2.47 9.77-3.71 10.85-2.78 4.36 3.8-13.1 8.64-12.51 12.58 1.04 1.5 6.56 2.26 10.47 2.37 4.68.13 18.14-3.11 18.2-.31.05 2.35-9.72 4.99-13.07 5.3 3.5-.3 18.57-3.33 17.69.5-.65 2.81-18.06 4.72-20.38 4.91 1.13-.04 17.76-2.47 16.9.32-.98 3.24-16.07 4.24-18.4 4.43 1.43-.04 15.65-2.56 14.43.88-.76 2.13-14.55 4.46-16.87 4.66-10.23.86-35.88-6.06-38.9-7.49l-2.04-15.86s6.32-2.94 9.46-3.94c3.93-1.24 7.67-2.9 9.64-3.52" fill="#F8B791"/>
    <path d="M419.53 338.73c-33.2 11.12-91.38 26.79-107.43-20.66-23.34-69 33.67-130.27 77.65-124.27l-2.4 44.09c10.8 17.38-18 40.86-13.84 53.93 3.84 12.02 22.3-1.97 49.23 16.18 4.67 3.15 1.45 29.16-3.21 30.73" fill="#2CC0D6"/>
    <path d="M375.04 168.65c-.01-.01-8.98-17.9-6.74-29.76 1.94-10.26 10.23-13.32 10.23-13.32 1.64-14.55 15.64-12.8 20.92-13.59 4.3-.64 9.54-7.78 14.77-7.26 6.2.6 4.56 6.14 15.36 6.35 11.07.22 6.09 10.07 11.02 13.5 0 0-7.46 1.3-9 4.42-4.19 8.46-4.49 11.67-11.09 4.3-1.82-2.04-19.84 38.04-21.37 48.54-.63 4.28-2.38 12.92-5.97 11.9-.26.36-8.2 6-12.7-.63-1.56-2.32-1.45-6.12.6-10.07-1.84.84-5.99 1.04-7.72-1.26-3.65-4.85 3.67-9.43 1.7-13.12" fill="#002869"/>
    <path d="M387.36 168.92l.51 33.53c4 12.27 33.51 12.42 33.17 1.96l-.63-17.07-33.05-18.42" fill="#E8967C"/>
    <path d="M422.64 196.66c13.11-2.46 17.44-20.56 17.8-22.47.58-3.11.29-6.49-.97-9.98a22.82 22.82 0 0 1-.9-3.27l-.08-.41a26.7 26.7 0 0 1-.46-5.18c.02-1.83-.01-3.75-.07-5.24-.26-6.83-1.43-15-5.31-16.87-5.93-3.4-48.76-18.77-49.9 18.07-.07 2.33 3.1 5.08 4.93 10.4-11.72-3-6.73 19.23 3.78 16.5 4.61 11.98 19.8 20.58 31.18 18.45z" fill="#F8B791"/>
    <path d="M409.15 172.24a7.01 7.01 0 1 1-13.93 1.53 7.01 7.01 0 0 1 13.93-1.53m31.28 1.95c.64-3.1.3-6.49-.96-9.98a22.82 22.82 0 0 1-.9-3.27l-.08-.41a7 7 0 0 0 1.94 13.66" fill="#F27979" opacity=".5"/>
    <path d="M414.72 160.62s-2.95 5.4-12.94-.16c-1.25-.7 4.55 1.1 7.9 1.22 3.45.13 5.85-2.23 5.04-1.06m21.92-4.24c-.52 1.68-8.08 6.35-11.07 2.3-.86-1.14 2.76 1.4 6.02.18 3.23-1.21 5.33-3.4 5.05-2.48" fill="#002869"/>
    <path d="M419.8 173.36c2.28-.06 5.72-.85 6.12-3.57.18-1.2-.5-2.15-1.1-3.12-1.58-2.47-2.98-4.74-3.11-7.77-.02-.4-.64-.45-.63-.05.13 2.9 1.3 5.17 2.83 7.58.9 1.41 1.95 2.64.85 4.33-1 1.54-3.2 1.93-4.9 1.98-.41.01-.45.64-.05.62" fill="#BA6C6C"/>
    <path d="M415.68 180.02c-.79-1.35 3.13 1.95 12.07-2.29 3.57-1.68-2.31 6.96-12.07 2.29" fill="#F27979"/>
    <path d="M422.7 139.6c5.16-8.42 18.7 13.56 26.52-.4 3.64-6.5-.76-10.85-7.69-14.24-19.3-9.43-63.24-9.67-64.58 24.73-.34 8.78 10.15 7.74 13.35 18.91 1.4-.33 4.17 1.36 3.97-5.77-.23-8.07-3.3-22.36 5.39-22.18 7.57.16 18.23 6.8 23.04-1.05m-48 112.82c8.67 11-17.2 49.15 9.13 46.58.92-.09.93-1.54 0-1.45-23.5 2.29.85-34.8-8.1-46.16-.57-.73-1.6.3-1.02 1.03" fill="#002869"/>
    <path d="M547.88 151.15c-.83 2-.72 4.34-.86 6.48-.13 2.13-.49 4.34-.07 6.45.22 1.15 1.63 1.76 2.05.35.62-2.04.47-4.23.53-6.35.05-2.2.35-4.56-.27-6.7-.23-.78-1-1.15-1.38-.23zm-37.58-10.17c-1.16 1.5-1.73 3.38-2.39 5.14-.74 1.98-1.5 3.97-2.04 6.01-.21.8-.28 2.13.53 2.66.74.5 1.47.07 1.73-.74.67-2.04 1.2-4.13 1.85-6.18.6-1.92 1.36-3.78 1.62-5.79.1-.74-.55-2.07-1.3-1.1zm71.58-66.54C563.34 48.83 502.74 52.38 477.95 73c-6.86 5.7-11.34 26.54-1.82 42.77 2.3 3.91-24.6 32.72-21.08 34.84 2.7 1.63 34.05-23.65 37.66-21.99 33.28 15.27 71.3 12.44 89.17-9.8 12.18-15.16 11.47-28.52 0-44.38zm7.35 66.24c1.49 3.27 3.51 6.75 5.96 9.4 1.48 1.6 2.27-.79 1.53-2.04a83.53 83.53 0 0 0-6.08-8.67c-.92-1.18-1.87.31-1.41 1.31zm18.93-46.07c-.42.09-.62.8-.3 1.09 2.09 1.91 6.04 1.19 8.66 1.46 2.82.3 5.76 1.55 8.48.61.78-.27.92-1.64.4-2.16-1.89-1.9-5.11-1.68-7.67-1.72-3.09-.05-6.57.04-9.57.72zm-156.18-5.25c-2.56.04-5.47-.23-7.86.76-.87.37-.77 2.15.06 2.5 2.4.98 5.34.7 7.9.75 2.45.04 4.95.62 7-.81.65-.46.58-1.98-.05-2.41-2.06-1.42-4.6-.83-7.05-.79zm14-44.38l-.26.11c-.89.42-.75 1.69-.36 2.37 2.33 4.05 4.79 8.3 8.76 11.08.4.28.96.36 1.33-.04 2.13-2.27-1.26-4.13-2.65-5.6a37.67 37.67 0 0 1-3.13-3.95c-.84-1.17-1.6-3.02-2.82-3.83-.26-.17-.57-.29-.88-.14zm133.16.44c-2.63.9-4.93 4.13-6.77 6.11-1.68 1.82-4.09 3.68-4.28 6.28-.01.25.15.45.39.48 1.96.2 3.87-3.32 5.07-4.6 2.04-2.15 4.74-4.02 6.23-6.59.32-.55.37-2.01-.64-1.68zm-91.12-11.1c-.87 2-.1 4.25.27 6.3l1.5 8.28c.54 2.99 3.28 1.1 2.86-1.3a215 215 0 0 0-1.57-8.24c-.37-1.73-.47-4.4-2.11-5.44-.43-.28-.76-.03-.95.4zM552.88 30l-.23.06c-.4.12-.66.74-.69 1.1-.17 2.34-.27 4.68-.38 7.02-.09 2.03-.63 4.33.33 6.18.28.54.83.83 1.24.22 1.06-1.6.72-3.59.75-5.44l.05-3.05c.03-1.52.04-3.04.02-4.57 0-.57-.24-1.2-.78-1.47-.12-.06-.18-.1-.31-.05z" fill="#98348B"/>
    <path d="M523.48 124.98c-.35 1.25-.98 1.95-1.89 1.95a10.5 10.5 0 0 0-1.4-.7l-1.88-.14c-1.18-.9-1.74-1.6-1.74-2.16 0-1.81.35-3.35 1.18-4.53l3.63-.42c.28 0 .77.42 1.54 1.11.9.98 1.6 1.54 1.95 1.75-.42.35-.84 1.4-1.4 3.14zm19.11-36.21l-14.5 8.02c-5.1 2.86-7.68 5.44-7.68 7.6 0 .7.14 1.4.48 2.1.07.14.14.77.14 1.95-.28.28-.76.35-1.53.35-1.81 0-3.21-.9-4.12-2.79a7.78 7.78 0 0 1-.97-3.77c0-1.81.2-3.28.7-4.32.55-1.26 2.09-2.66 4.53-4.05 1.81-1.12 5.44-3.07 10.74-6l.98-.21c2.02-1.26 4.26-2.65 6.63-4.26 3.98-2.58 5.93-4.4 5.93-5.44 0-1.18-1.05-1.81-3.07-2.1h-4.19c-.14 0-.48.08-1.04.29-.63.14-.91.2-1.05.2-3.49.22-6 .63-7.54 1.26-.9.35-2.93 1.26-6.14 2.8-2.5 1.11-3.9 1.74-4.11 1.74a3.9 3.9 0 0 1-2.51-1.05c-.77-.7-1.19-1.4-1.19-1.95 0 .2.14-.84.42-3.21.56-.28 3.42-1.54 8.58-3.77.77-.35 3.28-.9 7.68-1.81 4.32-.91 6.9-1.33 7.67-1.33 3 0 4.95.14 5.8.35 4.74 1.53 7.1 4.33 7.1 8.44 0 3.77-2.57 7.4-7.74 10.96zm12.48 31.66c-.17.62-.48.96-.93.96a5.29 5.29 0 0 0-.69-.34l-.93-.07c-.58-.45-.86-.8-.86-1.07 0-.9.17-1.66.59-2.24l1.8-.2c.13 0 .37.2.75.54.45.49.8.76.96.87-.2.17-.41.68-.69 1.55zm9.45-17.9l-7.17 3.97c-2.52 1.41-3.8 2.69-3.8 3.76 0 .34.08.69.25 1.03.03.07.07.38.07.97-.14.13-.38.17-.76.17-.9 0-1.59-.45-2.03-1.38a3.85 3.85 0 0 1-.49-1.86c0-.9.1-1.62.35-2.14.27-.62 1.03-1.31 2.24-2 .9-.55 2.69-1.52 5.3-2.96l.5-.1c.99-.63 2.1-1.32 3.27-2.11 1.96-1.28 2.93-2.17 2.93-2.69 0-.59-.52-.9-1.52-1.03h-2.07c-.07 0-.24.03-.52.13-.3.07-.44.1-.51.1-1.73.11-2.97.32-3.73.63-.45.17-1.45.62-3.03 1.38-1.24.55-1.93.86-2.04.86-.4 0-.82-.17-1.24-.52-.38-.34-.58-.69-.58-.96 0 .1.07-.42.2-1.59.28-.14 1.7-.76 4.25-1.86.37-.17 1.62-.45 3.79-.9 2.13-.45 3.41-.65 3.79-.65 1.48 0 2.45.07 2.86.17 2.35.76 3.52 2.14 3.52 4.17 0 1.86-1.28 3.66-3.83 5.41zm-69.97 4.69c-.17.62-.48.97-.93.97a5.29 5.29 0 0 0-.69-.35l-.93-.07c-.59-.44-.86-.79-.86-1.06 0-.9.17-1.66.58-2.25l1.8-.2c.13 0 .38.2.76.55.44.48.79.76.96.86-.2.17-.41.7-.69 1.55zM504 89.33l-7.17 3.96c-2.52 1.42-3.8 2.7-3.8 3.76 0 .35.07.7.25 1.04.03.07.06.38.06.96-.13.14-.37.17-.75.17-.9 0-1.59-.44-2.04-1.37a3.85 3.85 0 0 1-.48-1.87c0-.9.1-1.62.34-2.13.28-.62 1.04-1.31 2.24-2 .9-.55 2.7-1.52 5.31-2.97l.49-.1c1-.62 2.1-1.31 3.27-2.1 1.97-1.28 2.93-2.18 2.93-2.7 0-.58-.51-.89-1.51-1.03h-2.07c-.07 0-.24.04-.52.14-.31.07-.45.1-.52.1-1.72.1-2.96.31-3.72.62-.45.18-1.45.62-3.03 1.38-1.25.55-1.93.86-2.04.86-.41 0-.83-.17-1.24-.51-.38-.35-.59-.7-.59-.97 0 .1.07-.41.21-1.58.28-.14 1.7-.76 4.24-1.87.38-.17 1.62-.44 3.8-.9 2.13-.44 3.4-.65 3.79-.65 1.48 0 2.44.07 2.86.18 2.34.75 3.51 2.13 3.51 4.17 0 1.86-1.27 3.65-3.82 5.41z" fill="#E8E2E3"/>
    <path d="M208.53 250.4c1.6 12.23-15.5 54.64-11.85 75.68 35.4 7.43 118.86-5.9 125.35-33.9.53-18.95-.15-40.15.22-52.77.94-32.99-5.15-89.5-60.05-72.01-2.82-.6-2.72-4.73-30.4-2.85-26.78 1.81-28.07 49.34-23.27 85.86" fill="#DE678E"/>
    <path d="M109.94 137.86c1.8-1.34 3.5.47 3.83 1.62-.82-1.08-1.5-4.69.68-5.32 1.6-.46 2.58.66 3.13 1.73a4 4 0 0 1 .6-2.5c1.23-1.7 4-1 4.48 1.82-.28-1.65-1.4-5.85-2.12-9.75-.82-4.47-2.04-8.55.12-8.95 1.8-.35 3.4 4.78 4.5 8.43 1.09 3.65 2.36 7.63 2.77 9.5a22.89 22.89 0 0 0 2.56 6.63c5.54 2.1 5.75-16.43 11.22-13.32 1.79 1.03-1.55 6.8-2.24 15.03-.28 3.38-.01 7.4-.64 10.18-.36 1.65-1.37 6.38-2.81 9.48-1.14 2.43-.2 6.18-.2 6.18l-16.37.99c0-6.52-6.18-15.3-8.51-23.39-.54-1.87-2.45-7.27-1-8.36" fill="#A95849"/>
    <path d="M115.5 166.55c-11.12 56.7 23.32 99.17 71.39 96.9 68.3-3.22 109.42-56.88 90.75-94.1l-18.4.26c-54.5-9.53-67.55 31.25-83.94 29.77-11.8-1.06-31.26-11.4-35.27-35.32-.88-5.21-23.65-2.04-24.54 2.5" fill="#DE678E"/>
    <path d="M244.32 170.14c-9.13 21.82-41.72 29.4-35.98-2.8 1.77-9.96-10.15-17.2-11.33-24.28-2.68-16.09 11.57-18.67 15.1-33.32 5.32-22.09 26.8-54.83 71.26-24.62 17.34 11.77-39.05 85.02-39.05 85.02" fill="#002869"/>
    <path d="M273.62 130.2l.1 40.82c-2.1 11.75-30.92 13.48-29.4.1l-.08-17.53 29.38-23.38" fill="#863E31"/>
    <path d="M225.4 129.6c-.18 2.5-.5 4.76-.35 7.2.18 3.2.87 6.43 2.09 9.45 3.23 8.06 9.97 19.48 18.38 19.68 14.88.34 34.17-16.46 31.78-38.15-2.08-18.92-18.09-47.96-23.88-36.77-8.98 17.35-19.06 10.66-25.49 21.39-1.34 2.24-2.58 5.06-2.49 11.57.03 2.1.1 3.92-.03 5.63" fill="#A95849"/>
    <path d="M256.05 140.28a8.39 8.39 0 1 0 16.76.62 8.39 8.39 0 0 0-16.76-.62m-31-3.48c.18 3.2.91 6.41 2.09 9.45a8.4 8.4 0 0 0-1.12-16.64h-.61c-.19 2.48-.5 4.75-.36 7.2" fill="#F07F6A" opacity=".65"/>
    <path d="M250.3 129.56s3.38 5.59 13.73-.75c1.3-.8-4.44.98-7.99 1.26-3.66.29-6.65-1.71-5.73-.5m-23.11-3.59c.83 1.37 8.3 7.12 11.05 2.03.72-1.34-2.16 1.46-5.5.24-3.45-1.25-6.08-3.16-5.55-2.27" fill="#002869"/>
    <path d="M245.6 143.04c-2.2.1-5.59-.43-6.16-3.04-.26-1.15.33-2.12.85-3.1 1.35-2.5 2.55-4.8 2.47-7.75-.01-.38.59-.47.6-.08.08 2.82-.9 5.1-2.21 7.54-.78 1.43-1.7 2.7-.52 4.26 1.07 1.41 3.24 1.64 4.9 1.57.38-.02.47.58.08.6" fill="#572E24"/>
    <path d="M253.77 148.53c.66-1.3-10.43 1.88-15.7-1.37-3.15-1.93 5.12 16.56 15.7 1.37m-41.39 76.69c7.7-11.66 49.53-11.67 53.1-6.54 5.87 8.42 14.04 66.15 6.42 75.03-7.26 8.45-44.47 11.47-44.47 11.47s-35.01-3.08-51.43-11.05c-9.03-4.39-2.38-81.93 7.68-90.94 4.9-4.39 26.62 9.68 28.7 22.03" fill="#FFF"/>
    <path d="M211.46 228.83c7.7-11.66 52.34-13.72 57.78-7.58 3.2 3.6 12.82 67.84 5.2 76.72-7.26 8.45-62.36 7.35-62.36 7.35s-26.38-7.69-42.8-15.66c-9.03-4.39-4.35-73.92 5.7-82.93 4.9-4.38 33.49 9.2 36.48 22.1" fill="#FFF"/>
    <path d="M211.2 231.09c12.86-13.2 57.64-10.99 60.42-6 4.52 8.11 9.7 62.1 2.08 70.98-7.25 8.45-61.62 7.05-61.62 7.05-13.83-6.01-26.94-7.1-44.57-15.45-9.1-4.3-8.82-67.6.3-77.12 5.4-5.63 41.15 11.12 43.38 20.54" fill="#FFF"/>
    <path d="M220.4 230.79s.2-7.77-8.2-8.63c-9.1-.92-12.17 7.16-12.17 7.16 7.17 2.83 14.04 3.82 20.36 1.47" fill="#E8E2E3"/>
    <path d="M210.83 235.53c3.55-.6 6.31-2.97 8.22-7.18 1.06-4.41 45.24-2.92 54.77.9 6.4 2.57 6.56 68.32 2.33 73.96-3.27 4.35-55 1.55-58.9 4.33 0 0-8.74 1.55-12.52-1.72-3.74-3.22-37.53-13.83-41.84-15.9-6.75-3.25-6.2-68.84-.94-78.94 2.17-4.18 41.43 9.45 41.29 15.53-.1 4.53 7.59 9.02 7.59 9.02" fill="#016099"/>
    <path d="M219.17 308.19l-.12-79.84c-5.32 2.39-12.94 3.19-15.81-1.84l-.95 78.99c0 3.97 16.88 5.34 16.88 2.69" fill="#002869"/>
    <path d="M194.97 238.12c-9-5.01-18.41-9.02-28.5-11.26-1.43-.32-.82-2.51.6-2.2 10.28 2.28 19.88 6.39 29.05 11.5 1.28.71.13 2.68-1.15 1.96m-5.17 8.03c-6.09-2.9-12.37-6.37-18.97-7.91-1.42-.34-.82-2.53.6-2.2 6.78 1.59 13.28 5.18 19.52 8.15 1.32.63.17 2.59-1.15 1.96" fill="#A9D3E0"/>
    <path d="M232.04 274.55c-4.33-1.36-9.57-.78-11.96-1.7-5.36-2.03-8.05-3.05-8.94-2.28-3.58 3.12 10.79 7.1 10.3 10.36-.85 1.23-5.4 1.86-8.62 1.95-3.85.1-14.93-2.57-14.98-.26-.04 1.93 8 4.1 10.76 4.36-2.87-.24-15.29-2.74-14.56.41.53 2.32 14.86 3.89 16.77 4.05-.92-.04-14.62-2.03-13.92.26.82 2.67 13.25 3.49 15.15 3.65-1.17-.04-12.87-2.11-11.87.72.63 1.76 11.98 3.68 13.9 3.84 8.41.7 29.53-4.99 32.02-6.16l1.67-13.07s-5.2-2.42-7.79-3.24c-3.23-1.02-6.31-2.38-7.93-2.9" fill="#A95849"/>
    <path d="M245.67 298.17c13.83 1.8 77.52 34.87 96.73-10.09 26.87-62.87-10.28-126.72-63.6-122.79l24.34 61.22c-10.14 16.3-8.16 17.62-12.08 29.89-3.6 11.28-3.8 18.1-46.16 17.04-5.29-.13-3.8 24.14.77 24.73" fill="#DE678E"/>
    <path d="M246.06 77s57.79-25.57 67.36 31.57c3.26 19.4 37.92 21.87 17.8 58.04-6.35 11.42 32.03 19.43-7.84 47.97-28.3 20.27-70.62 1.28-65.57-17.91 5.6-21.25 24.77-9.93 12.22-37-6.38-13.76 1.12-21.95 2.67-26.56l.92-2.9c.93-3.28 1.32-6.34 0-9.35-3.94-8.96-30.8-3.52-25.06-24.55 5.42-19.86-2.5-19.3-2.5-19.3" fill="#002869"/>
    <path d="M282.89 271.04c16.68-6.26.79-38.47 8.36-50.52.43-.69-.57-1.47-1-.78-7.67 12.19 7.13 44.51-7.85 50.13-.76.29-.28 1.46.49 1.17m-17.87 33.66c17.64 5.94 41.1 11.55 58.87 3.75.74-.32.1-1.41-.64-1.09-17.4 7.63-40.58 1.95-57.89-3.89-.77-.26-1.1.97-.34 1.23m43.49-206.37c1.7 6.1 4.28 11.48 8.43 16.3 4.33 5.02 8.46 8.91 10.13 15.61.2.8 1.42.46 1.22-.34-1.24-4.97-3.67-8.74-7.08-12.5-5.43-6.01-9.25-11.42-11.47-19.4-.22-.79-1.45-.45-1.23.33m-99.95 59.07c1.67 6.17-3.28 12.94-3.42 19.2-.15 6.54 4.56 9.34 10.5 10.42.79.15 1.13-1.08.33-1.22-18.38-3.35-3.31-18.1-6.19-28.74-.2-.8-1.43-.46-1.22.33" fill="#002869"/>
    <path d="M99.46 112.53c.77 1.84.67 4 .8 5.97.12 1.97.45 4.01.07 5.95-.21 1.07-1.5 1.63-1.9.33-.57-1.88-.43-3.9-.48-5.86-.05-2.03-.33-4.2.24-6.17.21-.73.92-1.07 1.27-.22zM68.1 41.78c17.1-23.63 73-20.36 95.87-1.34 6.33 5.27 10.46 24.48 1.68 39.45-2.12 3.61 10.3 41.05 7.05 43-2.5 1.5-19.01-32.67-22.35-31.14-30.7 14.08-65.77 11.47-82.25-9.04-11.23-13.98-10.58-26.31 0-40.93zm66.03 61.37c1.07 1.39 1.6 3.12 2.2 4.74.69 1.83 1.39 3.66 1.89 5.54.2.74.26 1.97-.49 2.46-.69.45-1.35.07-1.6-.69-.62-1.88-1.1-3.8-1.7-5.7-.56-1.77-1.25-3.48-1.5-5.33-.1-.7.5-1.92 1.2-1.02zm-72.8-.28a33.47 33.47 0 0 1-5.5 8.67c-1.37 1.47-2.1-.73-1.42-1.88a77.07 77.07 0 0 1 5.61-8c.86-1.09 1.73.29 1.3 1.21zm-17.46-42.5c.38.09.57.74.27 1-1.93 1.78-5.57 1.1-7.99 1.36-2.6.27-5.31 1.43-7.82.56-.72-.24-.85-1.5-.37-2 1.74-1.74 4.71-1.54 7.08-1.58 2.84-.04 6.05.04 8.83.66zm144.06-4.84c2.36.04 5.04-.2 7.25.7.8.34.71 1.99-.06 2.3-2.21.91-4.92.66-7.29.7-2.25.03-4.57.58-6.46-.75-.6-.42-.52-1.82.06-2.22 1.9-1.31 4.25-.76 6.5-.73zm-12.9-40.94l.22.11c.82.39.7 1.55.34 2.18-2.15 3.74-4.42 7.66-8.09 10.22-.37.26-.88.34-1.22-.03-1.96-2.1 1.16-3.81 2.44-5.17 1.06-1.12 2-2.4 2.9-3.65.76-1.07 1.46-2.78 2.59-3.52.24-.16.52-.27.81-.14zm-122.85.42c2.43.82 4.55 3.8 6.24 5.63 1.56 1.68 3.78 3.39 3.95 5.79.02.23-.13.42-.35.44-1.8.19-3.57-3.06-4.68-4.24-1.88-1.98-4.37-3.71-5.75-6.08-.29-.5-.33-1.86.6-1.54zm84.05-10.24c.8 1.84.1 3.91-.24 5.8l-1.38 7.64c-.5 2.76-3.03 1.02-2.65-1.2.44-2.54.92-5.07 1.46-7.6.34-1.6.43-4.05 1.94-5.02.4-.25.7-.02.87.38zm-41.37-4c.07.01.14.04.2.06.37.1.61.67.64 1 .16 2.17.25 4.33.35 6.49.08 1.86.59 3.99-.3 5.7-.26.5-.77.76-1.14.2-.98-1.48-.66-3.31-.7-5.02-.03-2.34-.1-4.68-.06-7.03 0-.53.22-1.11.72-1.36.11-.05.17-.08.29-.05z" fill="#00ADEF"/>
    <path d="M141.65 82.78c0-.36.31-.82.98-1.39.62-.62 1.13-.87 1.54-.87 1.55 0 2.37.51 2.37 1.6 0 .45-.41 1.12-1.13 2.05-.72.93-1.34 1.39-1.8 1.39-1.29 0-1.96-.93-1.96-2.78zm-5.97-38.33a6 6 0 0 1 .16-.72c.1-.47.1-.67.1-.77a4.4 4.4 0 0 0 1.54-1.6c.31-.15.62-.26.88-.26.77 0 1.23.47 1.44 1.4.72 3.65 1.13 6.17 1.39 7.45.62 2.63 1.39 5.3 2.16 7.93.51 3.8.87 6.48 1.23 8.07.06 1.14.1 1.96.1 2.53 0 .66.21 2.2.57 4.52 0 2.68-.82 4.07-2.52 4.07-.25 0-.56-.16-.97-.46-.42-.26-.67-.52-.72-.78-.06-1.54-.1-2.72-.1-3.6-.52-2.67-.93-4.47-1.04-5.45-.51-3.2-.72-5.35-.87-6.48-.36-2.27-.72-3.81-.88-4.64a317.6 317.6 0 0 0-1.44-6.79c-.46-1.9-.77-3.4-1.03-4.42zm-15.32 38.1c0-.36.3-.82.97-1.39.62-.61 1.13-.87 1.55-.87 1.54 0 2.36.51 2.36 1.6 0 .46-.4 1.13-1.13 2.05-.72.93-1.34 1.4-1.8 1.4-1.29 0-1.95-.93-1.95-2.79zm-5.97-38.33c0-.05.05-.3.15-.72.1-.46.1-.67.1-.77a4.4 4.4 0 0 0 1.55-1.6c.3-.15.62-.25.87-.25.77 0 1.24.46 1.44 1.39.72 3.65 1.13 6.17 1.4 7.46.6 2.62 1.38 5.3 2.15 7.92.52 3.8.88 6.48 1.24 8.08.05 1.13.1 1.95.1 2.52 0 .67.2 2.21.57 4.53 0 2.67-.83 4.06-2.52 4.06-.26 0-.57-.15-.98-.46-.41-.26-.67-.52-.72-.77-.05-1.55-.1-2.73-.1-3.6-.52-2.68-.93-4.48-1.03-5.46-.52-3.19-.72-5.35-.88-6.48-.36-2.27-.72-3.8-.87-4.63-.26-1.29-.72-3.55-1.44-6.8-.47-1.9-.78-3.39-1.03-4.42zM99.3 82.78c0-.36.31-.82.98-1.39.62-.62 1.13-.87 1.54-.87 1.55 0 2.37.51 2.37 1.6 0 .45-.41 1.12-1.13 2.05-.72.93-1.34 1.39-1.8 1.39-1.29 0-1.96-.93-1.96-2.78zm-5.97-38.33c0-.05.06-.31.16-.72.1-.47.1-.67.1-.77a4.4 4.4 0 0 0 1.54-1.6c.31-.15.62-.26.88-.26.77 0 1.23.47 1.44 1.4.72 3.65 1.13 6.17 1.4 7.45.6 2.63 1.38 5.3 2.15 7.93.51 3.8.87 6.48 1.23 8.07.06 1.14.1 1.96.1 2.53 0 .66.21 2.2.57 4.52 0 2.68-.82 4.07-2.52 4.07-.25 0-.56-.16-.97-.46-.42-.26-.67-.52-.72-.78-.06-1.54-.1-2.72-.1-3.6-.52-2.67-.93-4.47-1.04-5.45-.51-3.2-.72-5.35-.87-6.48-.36-2.27-.72-3.81-.88-4.64-.25-1.28-.72-3.55-1.44-6.79-.46-1.9-.77-3.4-1.03-4.42z" fill="#E8E2E3"/>
  </g>
</svg>
